<svg xmlns="http://www.w3.org/2000/svg" width="1200" height="675" viewBox="0 0 1200 675" role="img"><defs><marker id="a" markerWidth="9" markerHeight="9" refX="8" refY="4.5" orient="auto"><path d="M0 0L9 4.5 0 9Z" fill="#72543d"/></marker><style>.b{fill:#fff;stroke:#403d36;stroke-width:2}.g{fill:#eef1eb;stroke:#49604e;stroke-width:2}.w{fill:#f5eee7;stroke:#72543d;stroke-width:2}.h{font:700 25px Arial;fill:#25231f}.s{font:600 18px Arial;fill:#403d36}.x{stroke:#72543d;stroke-width:3;fill:none;marker-end:url(#a)}</style></defs><rect width="1200" height="675" fill="#f7f6f2"/><text x="55" y="65" class="h">NN Engine Tile - Logical Architecture</text><g transform="translate(60 160)"><rect class="b" width="190" height="130" rx="14"/><text class="h" x="95" y="50" text-anchor="middle">Input stream</text><text class="s" x="95" y="84" text-anchor="middle">Q3.5 activations</text></g><path class="x" d="M250 225H320"/><g transform="translate(320 125)"><rect class="g" width="250" height="200" rx="14"/><text class="h" x="125" y="48" text-anchor="middle">8x8 systolic array</text><text class="s" x="125" y="85" text-anchor="middle">64 processing elements</text><text class="s" x="125" y="116" text-anchor="middle">signed Braun multiplier</text><text class="s" x="125" y="147" text-anchor="middle">weights stationary</text></g><path class="x" d="M570 225H640"/><g transform="translate(640 160)"><rect class="b" width="210" height="130" rx="14"/><text class="h" x="105" y="48" text-anchor="middle">Accumulator bank</text><text class="s" x="105" y="83" text-anchor="middle">32-bit Q6.10</text></g><path class="x" d="M850 225H920"/><g transform="translate(920 160)"><rect class="w" width="220" height="130" rx="14"/><text class="h" x="110" y="48" text-anchor="middle">Leaky ReLU</text><text class="s" x="110" y="83" text-anchor="middle">shift by 6</text></g><g transform="translate(320 400)"><rect class="b" width="250" height="115" rx="14"/><text class="h" x="125" y="46" text-anchor="middle">Weight ROM</text><text class="s" x="125" y="80" text-anchor="middle">quantized L1 / L2 weights</text></g><path class="x" d="M445 400V335"/><text x="60" y="610" class="s">Argmax and top-level sequencing reside above the implemented tile hierarchy.</text></svg>
