<svg xmlns="http://www.w3.org/2000/svg" width="1200" height="675" viewBox="0 0 1200 675" role="img"><style>.h{font:700 25px Arial;fill:#25231f}.s{font:600 17px Arial;fill:#403d36}.l{stroke:#49604e;stroke-width:3}.c{fill:#f5eee7;stroke:#72543d;stroke-width:2}</style><rect width="1200" height="675" fill="#f7f6f2"/><text x="55" y="65" class="h">Implemented 8-Input Bitonic Sorting Network</text><line class="l" x1="100" y1="120" x2="1100" y2="120"/><text class="s" x="55" y="126">s0</text><line class="l" x1="100" y1="180" x2="1100" y2="180"/><text class="s" x="55" y="186">s1</text><line class="l" x1="100" y1="240" x2="1100" y2="240"/><text class="s" x="55" y="246">s2</text><line class="l" x1="100" y1="300" x2="1100" y2="300"/><text class="s" x="55" y="306">s3</text><line class="l" x1="100" y1="360" x2="1100" y2="360"/><text class="s" x="55" y="366">s4</text><line class="l" x1="100" y1="420" x2="1100" y2="420"/><text class="s" x="55" y="426">s5</text><line class="l" x1="100" y1="480" x2="1100" y2="480"/><text class="s" x="55" y="486">s6</text><line class="l" x1="100" y1="540" x2="1100" y2="540"/><text class="s" x="55" y="546">s7</text><line class="l" x1="300" y1="120" x2="300" y2="180"/><circle class="c" cx="300" cy="120" r="9"/><circle class="c" cx="300" cy="180" r="9"/><line class="l" x1="300" y1="240" x2="300" y2="300"/><circle class="c" cx="300" cy="240" r="9"/><circle class="c" cx="300" cy="300" r="9"/><line class="l" x1="300" y1="360" x2="300" y2="420"/><circle class="c" cx="300" cy="360" r="9"/><circle class="c" cx="300" cy="420" r="9"/><line class="l" x1="300" y1="480" x2="300" y2="540"/><circle class="c" cx="300" cy="480" r="9"/><circle class="c" cx="300" cy="540" r="9"/><line class="l" x1="490" y1="120" x2="490" y2="180"/><circle class="c" cx="490" cy="120" r="9"/><circle class="c" cx="490" cy="180" r="9"/><line class="l" x1="490" y1="240" x2="490" y2="300"/><circle class="c" cx="490" cy="240" r="9"/><circle class="c" cx="490" cy="300" r="9"/><line class="l" x1="490" y1="360" x2="490" y2="420"/><circle class="c" cx="490" cy="360" r="9"/><circle class="c" cx="490" cy="420" r="9"/><line class="l" x1="490" y1="480" x2="490" y2="540"/><circle class="c" cx="490" cy="480" r="9"/><circle class="c" cx="490" cy="540" r="9"/><line class="l" x1="680" y1="120" x2="680" y2="180"/><circle class="c" cx="680" cy="120" r="9"/><circle class="c" cx="680" cy="180" r="9"/><line class="l" x1="680" y1="240" x2="680" y2="300"/><circle class="c" cx="680" cy="240" r="9"/><circle class="c" cx="680" cy="300" r="9"/><line class="l" x1="680" y1="360" x2="680" y2="420"/><circle class="c" cx="680" cy="360" r="9"/><circle class="c" cx="680" cy="420" r="9"/><line class="l" x1="680" y1="480" x2="680" y2="540"/><circle class="c" cx="680" cy="480" r="9"/><circle class="c" cx="680" cy="540" r="9"/><line class="l" x1="870" y1="120" x2="870" y2="180"/><circle class="c" cx="870" cy="120" r="9"/><circle class="c" cx="870" cy="180" r="9"/><line class="l" x1="870" y1="240" x2="870" y2="300"/><circle class="c" cx="870" cy="240" r="9"/><circle class="c" cx="870" cy="300" r="9"/><line class="l" x1="870" y1="360" x2="870" y2="420"/><circle class="c" cx="870" cy="360" r="9"/><circle class="c" cx="870" cy="420" r="9"/><line class="l" x1="870" y1="480" x2="870" y2="540"/><circle class="c" cx="870" cy="480" r="9"/><circle class="c" cx="870" cy="540" r="9"/><text x="55" y="630" class="s">Compare-exchange stages order partial-product tuples by matrix index before merging equal indices.</text></svg>
