<svg xmlns="http://www.w3.org/2000/svg" width="1200" height="675" viewBox="0 0 1200 675" role="img" aria-labelledby="t d"><title id="t">Eight-input bitonic sorting network</title><desc id="d">Eight tuples move through six layers of four two-wire compare-exchange operations before equal matrix indices are merged.</desc><style>.h{font:700 25px Arial;fill:#25231f}.s{font:600 16px Arial;fill:#403d36}.n{font:500 14px Arial;fill:#6b675f}.l{stroke:#49604e;stroke-width:3}.c{fill:#f5eee7;stroke:#72543d;stroke-width:2}</style><rect width="1200" height="675" fill="#f7f6f2"/><text x="55" y="58" class="h">Eight-input bitonic sorting network</text><text x="55" y="84" class="n">Six layers; four two-wire compare-exchange operations in each layer</text>
<g class="l"><line x1="120" y1="125" x2="1100" y2="125"/><line x1="120" y1="185" x2="1100" y2="185"/><line x1="120" y1="245" x2="1100" y2="245"/><line x1="120" y1="305" x2="1100" y2="305"/><line x1="120" y1="365" x2="1100" y2="365"/><line x1="120" y1="425" x2="1100" y2="425"/><line x1="120" y1="485" x2="1100" y2="485"/><line x1="120" y1="545" x2="1100" y2="545"/></g>
<g class="s"><text x="70" y="131">p0</text><text x="70" y="191">p1</text><text x="70" y="251">p2</text><text x="70" y="311">p3</text><text x="70" y="371">p4</text><text x="70" y="431">p5</text><text x="70" y="491">p6</text><text x="70" y="551">p7</text><text x="205" y="610">L1</text><text x="365" y="610">L2</text><text x="525" y="610">L3</text><text x="685" y="610">L4</text><text x="845" y="610">L5</text><text x="1005" y="610">L6</text></g>
<g class="l">
<path d="M220 125V185M220 245V305M220 365V425M220 485V545"/>
<path d="M365 125V245M395 185V305M365 365V485M395 425V545"/>
<path d="M540 125V185M540 245V305M540 365V425M540 485V545"/>
<path d="M670 125V365M690 185V425M710 245V485M730 305V545"/>
<path d="M845 125V245M875 185V305M845 365V485M875 425V545"/>
<path d="M1020 125V185M1020 245V305M1020 365V425M1020 485V545"/>
</g>
<g class="c"><circle cx="220" cy="125" r="8"/><circle cx="220" cy="185" r="8"/><circle cx="220" cy="245" r="8"/><circle cx="220" cy="305" r="8"/><circle cx="220" cy="365" r="8"/><circle cx="220" cy="425" r="8"/><circle cx="220" cy="485" r="8"/><circle cx="220" cy="545" r="8"/><circle cx="365" cy="125" r="8"/><circle cx="365" cy="245" r="8"/><circle cx="395" cy="185" r="8"/><circle cx="395" cy="305" r="8"/><circle cx="365" cy="365" r="8"/><circle cx="365" cy="485" r="8"/><circle cx="395" cy="425" r="8"/><circle cx="395" cy="545" r="8"/><circle cx="540" cy="125" r="8"/><circle cx="540" cy="185" r="8"/><circle cx="540" cy="245" r="8"/><circle cx="540" cy="305" r="8"/><circle cx="540" cy="365" r="8"/><circle cx="540" cy="425" r="8"/><circle cx="540" cy="485" r="8"/><circle cx="540" cy="545" r="8"/><circle cx="670" cy="125" r="8"/><circle cx="670" cy="365" r="8"/><circle cx="690" cy="185" r="8"/><circle cx="690" cy="425" r="8"/><circle cx="710" cy="245" r="8"/><circle cx="710" cy="485" r="8"/><circle cx="730" cy="305" r="8"/><circle cx="730" cy="545" r="8"/><circle cx="845" cy="125" r="8"/><circle cx="845" cy="245" r="8"/><circle cx="875" cy="185" r="8"/><circle cx="875" cy="305" r="8"/><circle cx="845" cy="365" r="8"/><circle cx="845" cy="485" r="8"/><circle cx="875" cy="425" r="8"/><circle cx="875" cy="545" r="8"/><circle cx="1020" cy="125" r="8"/><circle cx="1020" cy="185" r="8"/><circle cx="1020" cy="245" r="8"/><circle cx="1020" cy="305" r="8"/><circle cx="1020" cy="365" r="8"/><circle cx="1020" cy="425" r="8"/><circle cx="1020" cy="485" r="8"/><circle cx="1020" cy="545" r="8"/></g><text x="55" y="650" class="n">Conceptual eight-input network; compare-exchange acts on each tuple's output index before equal-index accumulation.</text></svg>
